<svg width="200" height="48" viewBox="0 0 200 48" fill="none" xmlns="http://www.w3.org/2000/svg">
<rect width="200" height="48" fill="#5FB4A2"/>
<rect opacity="0.1" width="48" height="48" fill="black"/>
<path d="M16 26L24 30L32 26" stroke="white"/>
<path opacity="0.5" d="M16 22L24 26L32 22" stroke="white"/>
<path opacity="0.25" d="M16 18L24 22L32 18" stroke="white"/>
<path d="M87.1122 28.12C86.5922 28.12 86.1082 28.034 85.6602 27.862C85.2122 27.69 84.8362 27.438 84.5322 27.106C84.2322 26.77 84.0382 26.36 83.9502 25.876H84.4782C84.5662 26.268 84.7382 26.596 84.9942 26.86C85.2542 27.124 85.5682 27.322 85.9362 27.454C86.3042 27.586 86.6962 27.652 87.1122 27.652C87.6082 27.652 88.0442 27.578 88.4202 27.43C88.7962 27.278 89.0902 27.07 89.3022 26.806C89.5182 26.542 89.6262 26.24 89.6262 25.9C89.6262 25.436 89.5042 25.05 89.2602 24.742C89.0162 24.434 88.6222 24.212 88.0782 24.076L86.1822 23.596C85.5542 23.436 85.0702 23.196 84.7302 22.876C84.3902 22.552 84.2202 22.132 84.2202 21.616C84.2202 21.16 84.3382 20.752 84.5742 20.392C84.8102 20.028 85.1402 19.742 85.5642 19.534C85.9922 19.322 86.4922 19.216 87.0642 19.216C87.7082 19.216 88.2442 19.336 88.6722 19.576C89.1042 19.812 89.4282 20.114 89.6442 20.482C89.8642 20.85 89.9722 21.228 89.9682 21.616H89.4402C89.3962 21.136 89.2542 20.758 89.0142 20.482C88.7782 20.202 88.4862 20.004 88.1382 19.888C87.7942 19.768 87.4302 19.708 87.0462 19.708C86.7902 19.708 86.5262 19.746 86.2542 19.822C85.9822 19.894 85.7302 20.008 85.4982 20.164C85.2662 20.316 85.0782 20.512 84.9342 20.752C84.7902 20.988 84.7182 21.272 84.7182 21.604C84.7182 21.976 84.8482 22.28 85.1082 22.516C85.3682 22.752 85.8302 22.958 86.4942 23.134L88.3122 23.614C88.9802 23.79 89.4502 24.088 89.7222 24.508C89.9942 24.928 90.1302 25.384 90.1302 25.876C90.1302 26.284 90.0182 26.658 89.7942 26.998C89.5702 27.338 89.2342 27.61 88.7862 27.814C88.3422 28.018 87.7842 28.12 87.1122 28.12ZM97.0237 28.12C95.9277 28.12 95.0637 27.742 94.4317 26.986C93.7997 26.23 93.4837 25.128 93.4837 23.68C93.4837 22.224 93.7997 21.114 94.4317 20.35C95.0637 19.586 95.9277 19.204 97.0237 19.204C98.1157 19.204 98.9717 19.586 99.5917 20.35C100.216 21.11 100.528 22.22 100.528 23.68C100.528 25.124 100.216 26.226 99.5917 26.986C98.9717 27.742 98.1157 28.12 97.0237 28.12ZM97.0237 27.628C97.9957 27.628 98.7337 27.302 99.2377 26.65C99.7457 25.998 99.9997 25.008 99.9997 23.68C99.9997 22.34 99.7437 21.342 99.2317 20.686C98.7197 20.026 97.9837 19.696 97.0237 19.696C96.0637 19.696 95.3217 20.028 94.7977 20.692C94.2737 21.352 94.0117 22.348 94.0117 23.68C94.0117 25.012 94.2737 26.004 94.7977 26.656C95.3217 27.304 96.0637 27.628 97.0237 27.628ZM104.568 28V19.324H107.004C107.976 19.324 108.73 19.516 109.266 19.9C109.806 20.284 110.076 20.84 110.076 21.568C110.076 22.06 109.946 22.476 109.686 22.816C109.426 23.156 108.984 23.416 108.36 23.596C109.648 23.812 110.292 24.508 110.292 25.684C110.292 26.456 110.006 27.036 109.434 27.424C108.866 27.808 108.068 28 107.04 28H104.568ZM105.036 23.368H107.148C107.42 23.368 107.698 23.344 107.982 23.296C108.27 23.248 108.536 23.162 108.78 23.038C109.028 22.91 109.228 22.732 109.38 22.504C109.532 22.276 109.608 21.984 109.608 21.628C109.608 20.992 109.364 20.53 108.876 20.242C108.388 19.95 107.748 19.804 106.956 19.804H105.036V23.368ZM105.036 27.508H106.98C107.904 27.508 108.608 27.376 109.092 27.112C109.58 26.844 109.824 26.392 109.824 25.756C109.824 25.288 109.702 24.916 109.458 24.64C109.218 24.36 108.894 24.16 108.486 24.04C108.082 23.92 107.636 23.86 107.148 23.86H105.036V27.508ZM120.119 28H119.579L117.827 23.872H114.911V28H114.443V19.324H117.503C118.343 19.324 118.997 19.504 119.465 19.864C119.933 20.22 120.167 20.756 120.167 21.472C120.167 21.956 120.071 22.354 119.879 22.666C119.687 22.978 119.449 23.222 119.165 23.398C118.881 23.57 118.599 23.692 118.319 23.764L120.119 28ZM117.095 23.38C117.931 23.38 118.567 23.24 119.003 22.96C119.443 22.676 119.663 22.208 119.663 21.556C119.663 20.936 119.477 20.49 119.105 20.218C118.737 19.942 118.199 19.804 117.491 19.804H114.911V23.38H117.095ZM124.33 28V19.324H129.31V19.804H124.798V23.368H128.998V23.86H124.798V27.496L129.478 27.508V28H124.33ZM138.595 28V19.324H139.123L142.375 27.472L145.675 19.324H146.191V28H145.675V20.608L142.723 28H142.027L139.111 20.704V28H138.595ZM150.826 19.324H151.294V28H150.826V19.324ZM155.931 28V19.324H156.459L159.711 27.472L163.011 19.324H163.527V28H163.011V20.608L160.059 28H159.363L156.447 20.704V28H155.931Z" fill="white"/>
</svg>
